<?xml version="1.0" encoding="UTF-8"?>
<svg width="289px" height="255px" viewBox="0 0 289 255" version="1.1" xmlns="http://www.w3.org/2000/svg" xmlns:xlink="http://www.w3.org/1999/xlink">
    <!-- Generator: Sketch 47 (45396) - http://www.bohemiancoding.com/sketch -->
    <title>Group</title>
    <desc>Created with Sketch.</desc>
    <defs></defs>
    <g id="Page-1" stroke="none" stroke-width="1" fill="none" fill-rule="evenodd">
        <g id="Group" transform="translate(0.000000, 1.000000)">
            <rect id="Rectangle" fill="#DEE0E2" transform="translate(144.500000, 112.500000) rotate(90.000000) translate(-144.500000, -112.500000) " x="43" y="-32" width="203" height="289"></rect>
            <text id="&lt;" font-family="GDSTransportWebsite-Bold, GDS Transport Website" font-size="12" font-weight="bold" fill="#7D7D7D">
                <tspan x="5" y="37">&lt;</tspan>
            </text>
            <text id="&gt;" font-family="GDSTransportWebsite-Bold, GDS Transport Website" font-size="12" font-weight="bold" fill="#7D7D7D">
                <tspan x="21" y="37">&gt;</tspan>
            </text>
            <rect id="Rectangle-3" fill="#FFFFFF" x="39" y="22" width="242" height="24"></rect>
            <path d="M42.8134766,28.1972656 L44.7001953,28.1972656 L44.7001953,31.3076172 C44.8004562,31.2073563 44.9132481,31.1105148 45.0385742,31.0170898 C45.1639004,30.9236649 45.3017571,30.8416345 45.4521484,30.7709961 C45.6025398,30.7003577 45.7700186,30.6433921 45.9545898,30.6000977 C46.1391611,30.5568032 46.3430978,30.5351562 46.5664062,30.5351562 C46.9628926,30.5351562 47.3183578,30.600097 47.6328125,30.7299805 C47.9472672,30.8598639 48.2127268,31.0387358 48.4291992,31.2666016 C48.6456717,31.4944673 48.8108718,31.7610662 48.9248047,32.0664062 C49.0387375,32.3717463 49.0957031,32.7021467 49.0957031,33.0576172 L49.0957031,38 L47.2089844,38 L47.2089844,33.7412109 C47.2089844,33.481444 47.1793623,33.2615569 47.1201172,33.081543 C47.0608721,32.901529 46.979981,32.7556972 46.8774414,32.644043 C46.7749018,32.5323888 46.6541348,32.4503583 46.5151367,32.3979492 C46.3761386,32.3455401 46.2246102,32.3193359 46.0605469,32.3193359 C45.8691397,32.3193359 45.6902678,32.3535153 45.5239258,32.421875 C45.3575838,32.4902347 45.2128912,32.5939121 45.0898438,32.7329102 C44.9667963,32.8719082 44.8710941,33.0462229 44.8027344,33.2558594 C44.7343747,33.4654958 44.7001953,33.7115871 44.7001953,33.9941406 L44.7001953,38 L42.8134766,38 L42.8134766,28.1972656 Z M53.3681641,35.8193359 C53.3681641,35.9059249 53.3795572,35.9879553 53.4023438,36.0654297 C53.4251303,36.142904 53.4650062,36.2101234 53.5219727,36.2670898 C53.5789391,36.3240563 53.6598302,36.3684894 53.7646484,36.4003906 C53.8694667,36.4322918 54.0039054,36.4482422 54.1679688,36.4482422 C54.2363285,36.4482422 54.3138017,36.4448243 54.4003906,36.4379883 C54.4869796,36.4311523 54.5735673,36.4231771 54.6601562,36.4140625 C54.7467452,36.4049479 54.8276363,36.3935548 54.902832,36.3798828 L55.0908203,36.3457031 L55.2617188,38.0136719 C55.0839835,38.0364584 54.899415,38.0569661 54.7080078,38.0751953 C54.5439445,38.0934246 54.3616546,38.1082356 54.1611328,38.1196289 C53.960611,38.1310222 53.7578135,38.1367188 53.5527344,38.1367188 C52.9010384,38.1367188 52.3929055,37.9886083 52.0283203,37.6923828 C51.6637352,37.3961574 51.4814453,36.9244824 51.4814453,36.2773438 L51.4814453,32.3193359 L50.1621094,32.3193359 L50.1621094,30.6787109 L51.4814453,30.6787109 L51.4814453,28.6074219 L53.3681641,28.1015625 L53.3681641,30.6787109 L55.2890625,30.6787109 L55.2890625,32.3193359 L53.3681641,32.3193359 L53.3681641,35.8193359 Z M59.1787109,35.8193359 C59.1787109,35.9059249 59.1901041,35.9879553 59.2128906,36.0654297 C59.2356772,36.142904 59.2755531,36.2101234 59.3325195,36.2670898 C59.389486,36.3240563 59.4703771,36.3684894 59.5751953,36.4003906 C59.6800135,36.4322918 59.8144523,36.4482422 59.9785156,36.4482422 C60.0468753,36.4482422 60.1243485,36.4448243 60.2109375,36.4379883 C60.2975265,36.4311523 60.3841142,36.4231771 60.4707031,36.4140625 C60.5572921,36.4049479 60.6381832,36.3935548 60.7133789,36.3798828 L60.9013672,36.3457031 L61.0722656,38.0136719 C60.8945304,38.0364584 60.7099619,38.0569661 60.5185547,38.0751953 C60.3544914,38.0934246 60.1722015,38.1082356 59.9716797,38.1196289 C59.7711579,38.1310222 59.5683604,38.1367188 59.3632812,38.1367188 C58.7115853,38.1367188 58.2034523,37.9886083 57.8388672,37.6923828 C57.474282,37.3961574 57.2919922,36.9244824 57.2919922,36.2773438 L57.2919922,32.3193359 L55.9726562,32.3193359 L55.9726562,30.6787109 L57.2919922,30.6787109 L57.2919922,28.6074219 L59.1787109,28.1015625 L59.1787109,30.6787109 L61.0996094,30.6787109 L61.0996094,32.3193359 L59.1787109,32.3193359 L59.1787109,35.8193359 Z M64.1757812,40.3105469 L62.2890625,40.3105469 L62.2890625,30.6787109 L64.1757812,30.6787109 L64.1757812,31.3076172 C64.3808604,31.0934234 64.6337876,30.9111336 64.9345703,30.7607422 C65.2353531,30.6103508 65.5999328,30.5351562 66.0283203,30.5351562 C66.5113956,30.5351562 66.9500306,30.6319977 67.3442383,30.8256836 C67.738446,31.0193695 68.0768215,31.2859684 68.359375,31.6254883 C68.6419285,31.9650082 68.8606763,32.3671852 69.015625,32.8320312 C69.1705737,33.2968773 69.2480469,33.800453 69.2480469,34.3427734 C69.2480469,34.8850939 69.1682951,35.3886696 69.0087891,35.8535156 C68.8492831,36.3183617 68.625978,36.7193994 68.3388672,37.0566406 C68.0517564,37.3938819 67.7076843,37.6582022 67.3066406,37.8496094 C66.905597,38.0410166 66.4635441,38.1367188 65.9804688,38.1367188 C65.766275,38.1367188 65.5714527,38.1173505 65.3959961,38.0786133 C65.2205395,38.0398761 65.0598966,37.9863285 64.9140625,37.9179688 C64.7682284,37.849609 64.6337897,37.7687179 64.5107422,37.675293 C64.3876947,37.581868 64.2760422,37.4804693 64.1757812,37.3710938 L64.1757812,40.3105469 Z M64.1210938,35.0195312 C64.1210938,35.2154958 64.1564124,35.3966463 64.2270508,35.5629883 C64.2976892,35.7293303 64.3990879,35.8740228 64.53125,35.9970703 C64.6634121,36.1201178 64.8217764,36.21582 65.0063477,36.2841797 C65.1909189,36.3525394 65.3994129,36.3867188 65.6318359,36.3867188 C65.9007175,36.3867188 66.1388336,36.3377284 66.3461914,36.2397461 C66.5535492,36.1417638 66.7278639,36.0039071 66.8691406,35.8261719 C67.0104174,35.6484366 67.1175127,35.437664 67.1904297,35.1938477 C67.2633467,34.9500313 67.2998047,34.6822931 67.2998047,34.390625 L67.2998047,34.3017578 C67.2998047,34.0100897 67.2633467,33.7412122 67.1904297,33.4951172 C67.1175127,33.2490222 67.0104174,33.035971 66.8691406,32.855957 C66.7278639,32.6759431 66.5535492,32.5358078 66.3461914,32.4355469 C66.1388336,32.335286 65.9007175,32.2851562 65.6318359,32.2851562 C65.3994129,32.2851562 65.1909189,32.3193356 65.0063477,32.3876953 C64.8217764,32.456055 64.6634121,32.5517572 64.53125,32.6748047 C64.3990879,32.7978522 64.2976892,32.9436841 64.2270508,33.1123047 C64.1564124,33.2809253 64.1210938,33.4632152 64.1210938,33.6591797 L64.1210938,35.0195312 Z M71.0253906,35.6621094 C71.2942722,35.903647 71.615558,36.1110017 71.9892578,36.2841797 C72.3629576,36.4573576 72.741209,36.5439453 73.1240234,36.5439453 C73.4020196,36.5439453 73.6207674,36.4903977 73.7802734,36.3833008 C73.9397794,36.2762039 74.0195312,36.1383472 74.0195312,35.9697266 C74.0195312,35.6826158 73.7119171,35.4593107 73.0966797,35.2998047 L72.5634766,35.15625 C72.2991523,35.0924476 72.0325534,35.0047206 71.7636719,34.8930664 C71.4947903,34.7814122 71.2475597,34.634441 71.0219727,34.4521484 C70.7963856,34.2698559 70.6140957,34.0476901 70.4750977,33.7856445 C70.3360996,33.523599 70.2666016,33.2011738 70.2666016,32.8183594 C70.2666016,32.5130193 70.3338209,32.2224949 70.4682617,31.9467773 C70.6027025,31.6710598 70.7941068,31.4283865 71.0424805,31.21875 C71.2908541,31.0091135 71.5927717,30.8427741 71.9482422,30.7197266 C72.3037127,30.5966791 72.7001931,30.5351562 73.1376953,30.5351562 C73.7620474,30.5351562 74.3191707,30.633137 74.809082,30.8291016 C75.2989933,31.0250661 75.6852199,31.2460925 75.9677734,31.4921875 L74.9833984,32.75 C74.7509754,32.5813794 74.4764013,32.4366868 74.159668,32.315918 C73.8429346,32.1951491 73.5250667,32.1347656 73.2060547,32.1347656 C72.9098292,32.1347656 72.6796883,32.1883133 72.515625,32.2954102 C72.3515617,32.402507 72.2695312,32.5312492 72.2695312,32.6816406 C72.2695312,32.8411466 72.3413079,32.9698888 72.4848633,33.0678711 C72.6284187,33.1658534 72.8369127,33.2513017 73.1103516,33.3242188 L73.9033203,33.5498047 C74.6598345,33.7639985 75.2021468,34.0533836 75.5302734,34.4179688 C75.8584001,34.7825539 76.0224609,35.2428358 76.0224609,35.7988281 C76.0224609,36.1087255 75.9586595,36.4038072 75.8310547,36.684082 C75.7034499,36.9643569 75.5166028,37.2138661 75.2705078,37.4326172 C75.0244128,37.6513683 74.7190773,37.8234043 74.3544922,37.9487305 C73.989907,38.0740566 73.5751976,38.1367188 73.1103516,38.1367188 C72.754881,38.1367188 72.4210628,38.104818 72.1088867,38.0410156 C71.7967107,37.9772132 71.5073256,37.8894862 71.2407227,37.777832 C70.9741198,37.6661778 70.733725,37.5397142 70.5195312,37.3984375 C70.3053375,37.2571608 70.1230476,37.1158861 69.9726562,36.9746094 L71.0253906,35.6621094 Z M77.2666016,36.8242188 C77.2666016,36.6510408 77.3019202,36.4858406 77.3725586,36.3286133 C77.443197,36.1713859 77.5377598,36.0335292 77.65625,35.9150391 C77.7747402,35.7965489 77.9137362,35.701986 78.0732422,35.6313477 C78.2327482,35.5607093 78.4013663,35.5253906 78.5791016,35.5253906 C78.7568368,35.5253906 78.9265942,35.5607093 79.0883789,35.6313477 C79.2501636,35.701986 79.3902989,35.7965489 79.5087891,35.9150391 C79.6272792,36.0335292 79.7218421,36.1713859 79.7924805,36.3286133 C79.8631188,36.4858406 79.8984375,36.6510408 79.8984375,36.8242188 C79.8984375,37.0065113 79.8631188,37.1774081 79.7924805,37.3369141 C79.7218421,37.4964201 79.6272792,37.6354161 79.5087891,37.7539062 C79.3902989,37.8723964 79.2501636,37.96582 79.0883789,38.0341797 C78.9265942,38.1025394 78.7568368,38.1367188 78.5791016,38.1367188 C78.4013663,38.1367188 78.2327482,38.1025394 78.0732422,38.0341797 C77.9137362,37.96582 77.7747402,37.8723964 77.65625,37.7539062 C77.5377598,37.6354161 77.443197,37.4964201 77.3725586,37.3369141 C77.3019202,37.1774081 77.2666016,37.0065113 77.2666016,36.8242188 Z M77.2666016,31.9912109 C77.2666016,31.8089184 77.3019202,31.6380216 77.3725586,31.4785156 C77.443197,31.3190096 77.5377598,31.1800136 77.65625,31.0615234 C77.7747402,30.9430333 77.9137362,30.8496097 78.0732422,30.78125 C78.2327482,30.7128903 78.4013663,30.6787109 78.5791016,30.6787109 C78.7568368,30.6787109 78.9265942,30.7128903 79.0883789,30.78125 C79.2501636,30.8496097 79.3902989,30.9430333 79.5087891,31.0615234 C79.6272792,31.1800136 79.7218421,31.3190096 79.7924805,31.4785156 C79.8631188,31.6380216 79.8984375,31.8089184 79.8984375,31.9912109 C79.8984375,32.1689462 79.8631188,32.3375643 79.7924805,32.4970703 C79.7218421,32.6565763 79.6272792,32.7967116 79.5087891,32.9174805 C79.3902989,33.0382493 79.2501636,33.1339515 79.0883789,33.2045898 C78.9265942,33.2752282 78.7568368,33.3105469 78.5791016,33.3105469 C78.4013663,33.3105469 78.2327482,33.2752282 78.0732422,33.2045898 C77.9137362,33.1339515 77.7747402,33.0382493 77.65625,32.9174805 C77.5377598,32.7967116 77.443197,32.6565763 77.3725586,32.4970703 C77.3019202,32.3375643 77.2666016,32.1689462 77.2666016,31.9912109 Z M84.4921875,28.1972656 L86.4199219,28.1972656 L82.9951172,38 L81.0605469,38 L84.4921875,28.1972656 Z M88.9902344,28.1972656 L90.9179688,28.1972656 L87.4931641,38 L85.5585938,38 L88.9902344,28.1972656 Z M98.6835938,35.6074219 L99.5791016,30.6787109 L101.575195,30.6787109 L99.8867188,38 L97.6445312,38 L96.5507812,33.2421875 L95.3886719,38 L93.1806641,38 L91.4853516,30.6787109 L93.5429688,30.6787109 L94.4111328,35.6074219 L95.6826172,30.6787109 L97.4873047,30.6787109 L98.6835938,35.6074219 Z M109.279297,35.6074219 L110.174805,30.6787109 L112.170898,30.6787109 L110.482422,38 L108.240234,38 L107.146484,33.2421875 L105.984375,38 L103.776367,38 L102.081055,30.6787109 L104.138672,30.6787109 L105.006836,35.6074219 L106.27832,30.6787109 L108.083008,30.6787109 L109.279297,35.6074219 Z M119.875,35.6074219 L120.770508,30.6787109 L122.766602,30.6787109 L121.078125,38 L118.835938,38 L117.742188,33.2421875 L116.580078,38 L114.37207,38 L112.676758,30.6787109 L114.734375,30.6787109 L115.602539,35.6074219 L116.874023,30.6787109 L118.678711,30.6787109 L119.875,35.6074219 Z M123.40918,36.8925781 C123.40918,36.7239575 123.44222,36.5655932 123.508301,36.4174805 C123.574382,36.2693677 123.664387,36.1394862 123.77832,36.027832 C123.892253,35.9161778 124.025553,35.8273115 124.178223,35.7612305 C124.330893,35.6951494 124.491536,35.6621094 124.660156,35.6621094 C124.828777,35.6621094 124.98828,35.6951494 125.138672,35.7612305 C125.289063,35.8273115 125.421223,35.9161778 125.535156,36.027832 C125.649089,36.1394862 125.739095,36.2693677 125.805176,36.4174805 C125.871257,36.5655932 125.904297,36.7239575 125.904297,36.8925781 C125.904297,37.0657561 125.871257,37.2275383 125.805176,37.3779297 C125.739095,37.5283211 125.649089,37.6604812 125.535156,37.7744141 C125.421223,37.8883469 125.289063,37.9772132 125.138672,38.0410156 C124.98828,38.104818 124.828777,38.1367188 124.660156,38.1367188 C124.491536,38.1367188 124.330893,38.104818 124.178223,38.0410156 C124.025553,37.9772132 123.892253,37.8883469 123.77832,37.7744141 C123.664387,37.6604812 123.574382,37.5283211 123.508301,37.3779297 C123.44222,37.2275383 123.40918,37.0657561 123.40918,36.8925781 Z M131.837891,36.7011719 C131.66927,36.906251 131.433433,37.0691726 131.130371,37.1899414 C130.82731,37.3107102 130.498049,37.3710938 130.142578,37.3710938 C129.650388,37.3710938 129.212893,37.2845061 128.830078,37.1113281 C128.447264,36.9381502 128.124839,36.7000341 127.862793,36.3969727 C127.600747,36.0939112 127.400229,35.7350281 127.26123,35.3203125 C127.122232,34.9055969 127.052734,34.4498723 127.052734,33.953125 C127.052734,33.4700497 127.122232,33.017743 127.26123,32.5961914 C127.400229,32.1746398 127.600747,31.8123388 127.862793,31.5092773 C128.124839,31.2062159 128.447264,30.9680998 128.830078,30.7949219 C129.212893,30.6217439 129.650388,30.5351562 130.142578,30.5351562 C130.498049,30.5351562 130.82731,30.5966791 131.130371,30.7197266 C131.433433,30.8427741 131.66927,31.0068349 131.837891,31.2119141 L131.837891,30.6787109 L133.731445,30.6787109 L133.731445,37.9316406 C133.731445,38.3782574 133.647136,38.7622054 133.478516,39.0834961 C133.309895,39.4047868 133.078615,39.6679677 132.784668,39.8730469 C132.490721,40.078126 132.150067,40.2273758 131.762695,40.3208008 C131.375324,40.4142257 130.962893,40.4609375 130.525391,40.4609375 C129.992185,40.4609375 129.436201,40.3982754 128.857422,40.2729492 C128.278643,40.1476231 127.779624,39.9915374 127.360352,39.8046875 L127.893555,38.2802734 C128.021159,38.3349612 128.178384,38.3953447 128.365234,38.4614258 C128.552084,38.5275068 128.752603,38.5856117 128.966797,38.6357422 C129.180991,38.6858726 129.405435,38.7280272 129.640137,38.762207 C129.874838,38.7963869 130.10384,38.8134766 130.327148,38.8134766 C130.523113,38.8134766 130.712239,38.7941083 130.894531,38.7553711 C131.076824,38.7166339 131.237467,38.6528325 131.376465,38.5639648 C131.515463,38.4750972 131.627115,38.3588874 131.711426,38.215332 C131.795736,38.0717766 131.837891,37.8883475 131.837891,37.6650391 L131.837891,36.7011719 Z M128.994141,33.9804688 C128.994141,34.2220064 129.020345,34.4487294 129.072754,34.6606445 C129.125163,34.8725597 129.209472,35.0525709 129.325684,35.2006836 C129.441895,35.3487963 129.591145,35.4650061 129.773438,35.5493164 C129.95573,35.6336267 130.176757,35.6757812 130.436523,35.6757812 C130.9515,35.6757812 131.318358,35.5128597 131.537109,35.1870117 C131.75586,34.8611637 131.865234,34.4589868 131.865234,33.9804688 L131.865234,33.9257812 C131.865234,33.6842436 131.84017,33.4586599 131.790039,33.2490234 C131.739909,33.039387 131.657878,32.8593758 131.543945,32.7089844 C131.430012,32.558593 131.283041,32.4412439 131.103027,32.3569336 C130.923013,32.2726233 130.700848,32.2304688 130.436523,32.2304688 C129.926104,32.2304688 129.558107,32.392251 129.33252,32.7158203 C129.106932,33.0393896 128.994141,33.4427059 128.994141,33.9257812 L128.994141,33.9804688 Z M138.571289,30.5351562 C139.113609,30.5351562 139.605792,30.6319977 140.047852,30.8256836 C140.489911,31.0193695 140.868162,31.2871077 141.182617,31.6289062 C141.497072,31.9707048 141.739745,32.3740211 141.910645,32.8388672 C142.081544,33.3037133 142.166992,33.8050103 142.166992,34.3427734 C142.166992,34.8850939 142.080405,35.3875302 141.907227,35.8500977 C141.734049,36.3126651 141.490236,36.7125634 141.175781,37.0498047 C140.861327,37.387046 140.483075,37.6525055 140.041016,37.8461914 C139.598956,38.0398773 139.109052,38.1367188 138.571289,38.1367188 C138.028969,38.1367188 137.536786,38.0398773 137.094727,37.8461914 C136.652667,37.6525055 136.274416,37.387046 135.959961,37.0498047 C135.645506,36.7125634 135.401694,36.3126651 135.228516,35.8500977 C135.055338,35.3875302 134.96875,34.8850939 134.96875,34.3427734 C134.96875,33.8050103 135.054198,33.3037133 135.225098,32.8388672 C135.395997,32.3740211 135.63867,31.9707048 135.953125,31.6289062 C136.26758,31.2871077 136.64697,31.0193695 137.091309,30.8256836 C137.535647,30.6319977 138.028969,30.5351562 138.571289,30.5351562 Z M138.571289,36.3867188 C138.840171,36.3867188 139.078287,36.336589 139.285645,36.2363281 C139.493002,36.1360672 139.667317,35.9970712 139.808594,35.8193359 C139.94987,35.6416007 140.056966,35.4285494 140.129883,35.1801758 C140.2028,34.9318021 140.239258,34.6595067 140.239258,34.3632812 L140.239258,34.3154297 C140.239258,34.0192042 140.2028,33.7469088 140.129883,33.4985352 C140.056966,33.2501615 139.94987,33.035971 139.808594,32.855957 C139.667317,32.6759431 139.493002,32.5358078 139.285645,32.4355469 C139.078287,32.335286 138.840171,32.2851562 138.571289,32.2851562 C138.302408,32.2851562 138.064291,32.335286 137.856934,32.4355469 C137.649576,32.5358078 137.475261,32.6759431 137.333984,32.855957 C137.192708,33.035971 137.085612,33.2501615 137.012695,33.4985352 C136.939778,33.7469088 136.90332,34.0192042 136.90332,34.3154297 L136.90332,34.3632812 C136.90332,34.6595067 136.939778,34.9318021 137.012695,35.1801758 C137.085612,35.4285494 137.192708,35.6416007 137.333984,35.8193359 C137.475261,35.9970712 137.649576,36.1360672 137.856934,36.2363281 C138.064291,36.336589 138.302408,36.3867188 138.571289,36.3867188 Z M144.969727,38 L142.727539,30.6787109 L144.833008,30.6787109 L146.145508,35.7167969 L147.492188,30.6787109 L149.563477,30.6787109 L147.334961,38 L144.969727,38 Z M149.727539,36.8925781 C149.727539,36.7239575 149.760579,36.5655932 149.82666,36.4174805 C149.892741,36.2693677 149.982747,36.1394862 150.09668,36.027832 C150.210613,35.9161778 150.343912,35.8273115 150.496582,35.7612305 C150.649252,35.6951494 150.809895,35.6621094 150.978516,35.6621094 C151.147136,35.6621094 151.30664,35.6951494 151.457031,35.7612305 C151.607423,35.8273115 151.739583,35.9161778 151.853516,36.027832 C151.967448,36.1394862 152.057454,36.2693677 152.123535,36.4174805 C152.189616,36.5655932 152.222656,36.7239575 152.222656,36.8925781 C152.222656,37.0657561 152.189616,37.2275383 152.123535,37.3779297 C152.057454,37.5283211 151.967448,37.6604812 151.853516,37.7744141 C151.739583,37.8883469 151.607423,37.9772132 151.457031,38.0410156 C151.30664,38.104818 151.147136,38.1367188 150.978516,38.1367188 C150.809895,38.1367188 150.649252,38.104818 150.496582,38.0410156 C150.343912,37.9772132 150.210613,37.8883469 150.09668,37.7744141 C149.982747,37.6604812 149.892741,37.5283211 149.82666,37.3779297 C149.760579,37.2275383 149.727539,37.0657561 149.727539,36.8925781 Z M159.933594,38 L158.046875,38 L158.046875,37.3710938 C157.942057,37.4713547 157.828126,37.5681961 157.705078,37.6616211 C157.582031,37.755046 157.445313,37.8370765 157.294922,37.9077148 C157.14453,37.9783532 156.977052,38.0341795 156.79248,38.0751953 C156.607909,38.1162111 156.403972,38.1367188 156.180664,38.1367188 C155.784178,38.1367188 155.428713,38.071778 155.114258,37.9418945 C154.799803,37.8120111 154.534344,37.6342785 154.317871,37.4086914 C154.101399,37.1831043 153.936198,36.9176448 153.822266,36.6123047 C153.708333,36.3069646 153.651367,35.9765643 153.651367,35.6210938 L153.651367,30.6787109 L155.538086,30.6787109 L155.538086,34.9306641 C155.538086,35.190431 155.566569,35.4114574 155.623535,35.59375 C155.680502,35.7760426 155.760253,35.9230138 155.862793,36.034668 C155.965333,36.1463222 156.087239,36.2283526 156.228516,36.2807617 C156.369792,36.3331708 156.52246,36.359375 156.686523,36.359375 C156.877931,36.359375 157.056803,36.3251957 157.223145,36.2568359 C157.389487,36.1884762 157.534179,36.0847989 157.657227,35.9458008 C157.780274,35.8068027 157.875976,35.632488 157.944336,35.4228516 C158.012696,35.2132151 158.046875,34.9671238 158.046875,34.6845703 L158.046875,30.6787109 L159.933594,30.6787109 L159.933594,38 Z M163.447266,33.5498047 L165.887695,30.6787109 L168.239258,30.6787109 L165.59375,33.6728516 L168.314453,38 L166.044922,38 L164.219727,35.0195312 L163.447266,35.8603516 L163.447266,38 L161.560547,38 L161.560547,28.1972656 L163.447266,28.1972656 L163.447266,33.5498047 Z M172.074219,28.1972656 L174.001953,28.1972656 L170.577148,38 L168.642578,38 L172.074219,28.1972656 Z M179.245117,32.5107422 L179.046875,32.5107422 C178.777993,32.5107422 178.521648,32.5380857 178.277832,32.5927734 C178.034016,32.6474612 177.818686,32.7465813 177.631836,32.8901367 C177.444986,33.0336921 177.295736,33.230793 177.184082,33.4814453 C177.072428,33.7320976 177.016602,34.0533835 177.016602,34.4453125 L177.016602,38 L175.129883,38 L175.129883,30.6787109 L177.016602,30.6787109 L177.016602,31.5058594 C177.094076,31.3828119 177.194335,31.2643235 177.317383,31.1503906 C177.44043,31.0364578 177.583984,30.935059 177.748047,30.8461914 C177.91211,30.7573238 178.096679,30.6855471 178.301758,30.6308594 C178.506837,30.5761716 178.727863,30.5488281 178.964844,30.5488281 L179.245117,30.5488281 L179.245117,32.5107422 Z M182,34.9921875 C182.031901,35.2109386 182.101399,35.4114574 182.208496,35.59375 C182.315593,35.7760426 182.451171,35.9321283 182.615234,36.0620117 C182.779298,36.1918952 182.968423,36.2932939 183.182617,36.3662109 C183.396811,36.439128 183.624673,36.4755859 183.866211,36.4755859 C184.144207,36.4755859 184.444985,36.4220383 184.768555,36.3149414 C185.092124,36.2078445 185.388345,36.0517588 185.657227,35.8466797 L186.566406,37.1728516 C186.224608,37.4599624 185.805341,37.6923819 185.308594,37.8701172 C184.811846,38.0478525 184.283206,38.1367188 183.722656,38.1367188 C183.216794,38.1367188 182.740562,38.0501311 182.293945,37.8769531 C181.847328,37.7037752 181.456545,37.4531266 181.121582,37.125 C180.786619,36.7968734 180.522299,36.3981143 180.328613,35.9287109 C180.134927,35.4593075 180.038086,34.930667 180.038086,34.3427734 C180.038086,33.8050103 180.123534,33.3037133 180.294434,32.8388672 C180.465333,32.3740211 180.704588,31.9707048 181.012207,31.6289062 C181.319826,31.2871077 181.687823,31.0193695 182.116211,30.8256836 C182.544598,30.6319977 183.018552,30.5351562 183.538086,30.5351562 C184.021161,30.5351562 184.47005,30.6228832 184.884766,30.7983398 C185.299481,30.9737965 185.659504,31.2198877 185.964844,31.5366211 C186.270184,31.8533544 186.509439,32.2327452 186.682617,32.6748047 C186.855795,33.1168642 186.942383,33.6044895 186.942383,34.1376953 L186.942383,34.9921875 L182,34.9921875 Z M183.53125,32.1757812 C183.125649,32.1757812 182.782716,32.3113593 182.502441,32.5825195 C182.222167,32.8536797 182.059245,33.1806621 182.013672,33.5634766 L184.966797,33.5634766 C184.957682,33.1761048 184.816408,32.8479831 184.542969,32.5791016 C184.26953,32.31022 183.932294,32.1757812 183.53125,32.1757812 Z M190.032227,40.3105469 L188.145508,40.3105469 L188.145508,30.6787109 L190.032227,30.6787109 L190.032227,31.3076172 C190.237306,31.0934234 190.490233,30.9111336 190.791016,30.7607422 C191.091798,30.6103508 191.456378,30.5351562 191.884766,30.5351562 C192.367841,30.5351562 192.806476,30.6319977 193.200684,30.8256836 C193.594891,31.0193695 193.933267,31.2859684 194.21582,31.6254883 C194.498374,31.9650082 194.717122,32.3671852 194.87207,32.8320312 C195.027019,33.2968773 195.104492,33.800453 195.104492,34.3427734 C195.104492,34.8850939 195.02474,35.3886696 194.865234,35.8535156 C194.705728,36.3183617 194.482423,36.7193994 194.195312,37.0566406 C193.908202,37.3938819 193.56413,37.6582022 193.163086,37.8496094 C192.762042,38.0410166 192.319989,38.1367188 191.836914,38.1367188 C191.62272,38.1367188 191.427898,38.1173505 191.252441,38.0786133 C191.076985,38.0398761 190.916342,37.9863285 190.770508,37.9179688 C190.624674,37.849609 190.490235,37.7687179 190.367188,37.675293 C190.24414,37.581868 190.132487,37.4804693 190.032227,37.3710938 L190.032227,40.3105469 Z M189.977539,35.0195312 C189.977539,35.2154958 190.012858,35.3966463 190.083496,35.5629883 C190.154134,35.7293303 190.255533,35.8740228 190.387695,35.9970703 C190.519857,36.1201178 190.678222,36.21582 190.862793,36.2841797 C191.047364,36.3525394 191.255858,36.3867188 191.488281,36.3867188 C191.757163,36.3867188 191.995279,36.3377284 192.202637,36.2397461 C192.409995,36.1417638 192.584309,36.0039071 192.725586,35.8261719 C192.866863,35.6484366 192.973958,35.437664 193.046875,35.1938477 C193.119792,34.9500313 193.15625,34.6822931 193.15625,34.390625 L193.15625,34.3017578 C193.15625,34.0100897 193.119792,33.7412122 193.046875,33.4951172 C192.973958,33.2490222 192.866863,33.035971 192.725586,32.855957 C192.584309,32.6759431 192.409995,32.5358078 192.202637,32.4355469 C191.995279,32.335286 191.757163,32.2851562 191.488281,32.2851562 C191.255858,32.2851562 191.047364,32.3193356 190.862793,32.3876953 C190.678222,32.456055 190.519857,32.5517572 190.387695,32.6748047 C190.255533,32.7978522 190.154134,32.9436841 190.083496,33.1123047 C190.012858,33.2809253 189.977539,33.4632152 189.977539,33.6591797 L189.977539,35.0195312 Z M199.582031,30.5351562 C200.124352,30.5351562 200.616534,30.6319977 201.058594,30.8256836 C201.500653,31.0193695 201.878905,31.2871077 202.193359,31.6289062 C202.507814,31.9707048 202.750487,32.3740211 202.921387,32.8388672 C203.092286,33.3037133 203.177734,33.8050103 203.177734,34.3427734 C203.177734,34.8850939 203.091147,35.3875302 202.917969,35.8500977 C202.744791,36.3126651 202.500978,36.7125634 202.186523,37.0498047 C201.872069,37.387046 201.493817,37.6525055 201.051758,37.8461914 C200.609698,38.0398773 200.119794,38.1367188 199.582031,38.1367188 C199.039711,38.1367188 198.547528,38.0398773 198.105469,37.8461914 C197.663409,37.6525055 197.285158,37.387046 196.970703,37.0498047 C196.656248,36.7125634 196.412436,36.3126651 196.239258,35.8500977 C196.06608,35.3875302 195.979492,34.8850939 195.979492,34.3427734 C195.979492,33.8050103 196.064941,33.3037133 196.23584,32.8388672 C196.406739,32.3740211 196.649412,31.9707048 196.963867,31.6289062 C197.278322,31.2871077 197.657713,31.0193695 198.102051,30.8256836 C198.546389,30.6319977 199.039711,30.5351562 199.582031,30.5351562 Z M199.582031,36.3867188 C199.850913,36.3867188 200.089029,36.336589 200.296387,36.2363281 C200.503745,36.1360672 200.678059,35.9970712 200.819336,35.8193359 C200.960613,35.6416007 201.067708,35.4285494 201.140625,35.1801758 C201.213542,34.9318021 201.25,34.6595067 201.25,34.3632812 L201.25,34.3154297 C201.25,34.0192042 201.213542,33.7469088 201.140625,33.4985352 C201.067708,33.2501615 200.960613,33.035971 200.819336,32.855957 C200.678059,32.6759431 200.503745,32.5358078 200.296387,32.4355469 C200.089029,32.335286 199.850913,32.2851562 199.582031,32.2851562 C199.31315,32.2851562 199.075034,32.335286 198.867676,32.4355469 C198.660318,32.5358078 198.486003,32.6759431 198.344727,32.855957 C198.20345,33.035971 198.096355,33.2501615 198.023438,33.4985352 C197.95052,33.7469088 197.914062,34.0192042 197.914062,34.3154297 L197.914062,34.3632812 C197.914062,34.6595067 197.95052,34.9318021 198.023438,35.1801758 C198.096355,35.4285494 198.20345,35.6416007 198.344727,35.8193359 C198.486003,35.9970712 198.660318,36.1360672 198.867676,36.2363281 C199.075034,36.336589 199.31315,36.3867188 199.582031,36.3867188 Z M208.543945,32.5107422 L208.345703,32.5107422 C208.076822,32.5107422 207.820476,32.5380857 207.57666,32.5927734 C207.332844,32.6474612 207.117514,32.7465813 206.930664,32.8901367 C206.743814,33.0336921 206.594564,33.230793 206.48291,33.4814453 C206.371256,33.7320976 206.31543,34.0533835 206.31543,34.4453125 L206.31543,38 L204.428711,38 L204.428711,30.6787109 L206.31543,30.6787109 L206.31543,31.5058594 C206.392904,31.3828119 206.493163,31.2643235 206.616211,31.1503906 C206.739258,31.0364578 206.882812,30.935059 207.046875,30.8461914 C207.210938,30.7573238 207.395507,30.6855471 207.600586,30.6308594 C207.805665,30.5761716 208.026692,30.5488281 208.263672,30.5488281 L208.543945,30.5488281 L208.543945,32.5107422 Z M212.419922,35.8193359 C212.419922,35.9059249 212.431315,35.9879553 212.454102,36.0654297 C212.476888,36.142904 212.516764,36.2101234 212.57373,36.2670898 C212.630697,36.3240563 212.711588,36.3684894 212.816406,36.4003906 C212.921224,36.4322918 213.055663,36.4482422 213.219727,36.4482422 C213.288086,36.4482422 213.365559,36.4448243 213.452148,36.4379883 C213.538737,36.4311523 213.625325,36.4231771 213.711914,36.4140625 C213.798503,36.4049479 213.879394,36.3935548 213.95459,36.3798828 L214.142578,36.3457031 L214.313477,38.0136719 C214.135741,38.0364584 213.951173,38.0569661 213.759766,38.0751953 C213.595702,38.0934246 213.413412,38.1082356 213.212891,38.1196289 C213.012369,38.1310222 212.809571,38.1367188 212.604492,38.1367188 C211.952796,38.1367188 211.444663,37.9886083 211.080078,37.6923828 C210.715493,37.3961574 210.533203,36.9244824 210.533203,36.2773438 L210.533203,32.3193359 L209.213867,32.3193359 L209.213867,30.6787109 L210.533203,30.6787109 L210.533203,28.6074219 L212.419922,28.1015625 L212.419922,30.6787109 L214.34082,30.6787109 L214.34082,32.3193359 L212.419922,32.3193359 L212.419922,35.8193359 Z M214.99707,32.7773438 L217.936523,32.7773438 L217.936523,34.4726562 L214.99707,34.4726562 L214.99707,32.7773438 Z M221.730469,35.8193359 C221.730469,35.9059249 221.741862,35.9879553 221.764648,36.0654297 C221.787435,36.142904 221.827311,36.2101234 221.884277,36.2670898 C221.941244,36.3240563 222.022135,36.3684894 222.126953,36.4003906 C222.231771,36.4322918 222.36621,36.4482422 222.530273,36.4482422 C222.598633,36.4482422 222.676106,36.4448243 222.762695,36.4379883 C222.849284,36.4311523 222.935872,36.4231771 223.022461,36.4140625 C223.10905,36.4049479 223.189941,36.3935548 223.265137,36.3798828 L223.453125,36.3457031 L223.624023,38.0136719 C223.446288,38.0364584 223.26172,38.0569661 223.070312,38.0751953 C222.906249,38.0934246 222.723959,38.1082356 222.523437,38.1196289 C222.322916,38.1310222 222.120118,38.1367188 221.915039,38.1367188 C221.263343,38.1367188 220.75521,37.9886083 220.390625,37.6923828 C220.02604,37.3961574 219.84375,36.9244824 219.84375,36.2773438 L219.84375,32.3193359 L218.524414,32.3193359 L218.524414,30.6787109 L219.84375,30.6787109 L219.84375,28.6074219 L221.730469,28.1015625 L221.730469,30.6787109 L223.651367,30.6787109 L223.651367,32.3193359 L221.730469,32.3193359 L221.730469,35.8193359 Z M226.419922,34.9921875 C226.451823,35.2109386 226.521321,35.4114574 226.628418,35.59375 C226.735515,35.7760426 226.871093,35.9321283 227.035156,36.0620117 C227.19922,36.1918952 227.388345,36.2932939 227.602539,36.3662109 C227.816733,36.439128 228.044595,36.4755859 228.286133,36.4755859 C228.564129,36.4755859 228.864907,36.4220383 229.188477,36.3149414 C229.512046,36.2078445 229.808267,36.0517588 230.077148,35.8466797 L230.986328,37.1728516 C230.64453,37.4599624 230.225263,37.6923819 229.728516,37.8701172 C229.231768,38.0478525 228.703128,38.1367188 228.142578,38.1367188 C227.636716,38.1367188 227.160484,38.0501311 226.713867,37.8769531 C226.26725,37.7037752 225.876467,37.4531266 225.541504,37.125 C225.206541,36.7968734 224.942221,36.3981143 224.748535,35.9287109 C224.554849,35.4593075 224.458008,34.930667 224.458008,34.3427734 C224.458008,33.8050103 224.543456,33.3037133 224.714355,32.8388672 C224.885255,32.3740211 225.12451,31.9707048 225.432129,31.6289062 C225.739748,31.2871077 226.107745,31.0193695 226.536133,30.8256836 C226.96452,30.6319977 227.438474,30.5351562 227.958008,30.5351562 C228.441083,30.5351562 228.889972,30.6228832 229.304687,30.7983398 C229.719403,30.9737965 230.079426,31.2198877 230.384766,31.5366211 C230.690106,31.8533544 230.929361,32.2327452 231.102539,32.6748047 C231.275717,33.1168642 231.362305,33.6044895 231.362305,34.1376953 L231.362305,34.9921875 L226.419922,34.9921875 Z M227.951172,32.1757812 C227.545571,32.1757812 227.202638,32.3113593 226.922363,32.5825195 C226.642088,32.8536797 226.479167,33.1806621 226.433594,33.5634766 L229.386719,33.5634766 C229.377604,33.1761048 229.236329,32.8479831 228.962891,32.5791016 C228.689452,32.31022 228.352216,32.1757812 227.951172,32.1757812 Z M236.680664,32.5107422 L236.482422,32.5107422 C236.21354,32.5107422 235.957195,32.5380857 235.713379,32.5927734 C235.469563,32.6474612 235.254233,32.7465813 235.067383,32.8901367 C234.880533,33.0336921 234.731283,33.230793 234.619629,33.4814453 C234.507975,33.7320976 234.452148,34.0533835 234.452148,34.4453125 L234.452148,38 L232.56543,38 L232.56543,30.6787109 L234.452148,30.6787109 L234.452148,31.5058594 C234.529623,31.3828119 234.629882,31.2643235 234.75293,31.1503906 C234.875977,31.0364578 235.01953,30.935059 235.183594,30.8461914 C235.347657,30.7573238 235.532226,30.6855471 235.737305,30.6308594 C235.942384,30.5761716 236.16341,30.5488281 236.400391,30.5488281 L236.680664,30.5488281 L236.680664,32.5107422 Z M241.97168,32.5107422 L241.773437,32.5107422 C241.504556,32.5107422 241.248211,32.5380857 241.004395,32.5927734 C240.760578,32.6474612 240.545248,32.7465813 240.358398,32.8901367 C240.171549,33.0336921 240.022299,33.230793 239.910645,33.4814453 C239.79899,33.7320976 239.743164,34.0533835 239.743164,34.4453125 L239.743164,38 L237.856445,38 L237.856445,30.6787109 L239.743164,30.6787109 L239.743164,31.5058594 C239.820638,31.3828119 239.920898,31.2643235 240.043945,31.1503906 C240.166993,31.0364578 240.310546,30.935059 240.474609,30.8461914 C240.638673,30.7573238 240.823241,30.6855471 241.02832,30.6308594 C241.233399,30.5761716 241.454426,30.5488281 241.691406,30.5488281 L241.97168,30.5488281 L241.97168,32.5107422 Z M246.367187,30.5351562 C246.909508,30.5351562 247.40169,30.6319977 247.84375,30.8256836 C248.28581,31.0193695 248.664061,31.2871077 248.978516,31.6289062 C249.29297,31.9707048 249.535644,32.3740211 249.706543,32.8388672 C249.877442,33.3037133 249.962891,33.8050103 249.962891,34.3427734 C249.962891,34.8850939 249.876303,35.3875302 249.703125,35.8500977 C249.529947,36.3126651 249.286134,36.7125634 248.97168,37.0498047 C248.657225,37.387046 248.278974,37.6525055 247.836914,37.8461914 C247.394855,38.0398773 246.904951,38.1367188 246.367187,38.1367188 C245.824867,38.1367188 245.332685,38.0398773 244.890625,37.8461914 C244.448565,37.6525055 244.070314,37.387046 243.755859,37.0498047 C243.441405,36.7125634 243.197592,36.3126651 243.024414,35.8500977 C242.851236,35.3875302 242.764648,34.8850939 242.764648,34.3427734 C242.764648,33.8050103 242.850097,33.3037133 243.020996,32.8388672 C243.191895,32.3740211 243.434569,31.9707048 243.749023,31.6289062 C244.063478,31.2871077 244.442869,31.0193695 244.887207,30.8256836 C245.331545,30.6319977 245.824867,30.5351562 246.367187,30.5351562 Z M246.367187,36.3867188 C246.636069,36.3867188 246.874185,36.336589 247.081543,36.2363281 C247.288901,36.1360672 247.463215,35.9970712 247.604492,35.8193359 C247.745769,35.6416007 247.852864,35.4285494 247.925781,35.1801758 C247.998698,34.9318021 248.035156,34.6595067 248.035156,34.3632812 L248.035156,34.3154297 C248.035156,34.0192042 247.998698,33.7469088 247.925781,33.4985352 C247.852864,33.2501615 247.745769,33.035971 247.604492,32.855957 C247.463215,32.6759431 247.288901,32.5358078 247.081543,32.4355469 C246.874185,32.335286 246.636069,32.2851562 246.367187,32.2851562 C246.098306,32.2851562 245.86019,32.335286 245.652832,32.4355469 C245.445474,32.5358078 245.27116,32.6759431 245.129883,32.855957 C244.988606,33.035971 244.881511,33.2501615 244.808594,33.4985352 C244.735677,33.7469088 244.699219,34.0192042 244.699219,34.3154297 L244.699219,34.3632812 C244.699219,34.6595067 244.735677,34.9318021 244.808594,35.1801758 C244.881511,35.4285494 244.988606,35.6416007 245.129883,35.8193359 C245.27116,35.9970712 245.445474,36.1360672 245.652832,36.2363281 C245.86019,36.336589 246.098306,36.3867188 246.367187,36.3867188 Z M255.329102,32.5107422 L255.130859,32.5107422 C254.861978,32.5107422 254.605633,32.5380857 254.361816,32.5927734 C254.118,32.6474612 253.90267,32.7465813 253.71582,32.8901367 C253.52897,33.0336921 253.379721,33.230793 253.268066,33.4814453 C253.156412,33.7320976 253.100586,34.0533835 253.100586,34.4453125 L253.100586,38 L251.213867,38 L251.213867,30.6787109 L253.100586,30.6787109 L253.100586,31.5058594 C253.17806,31.3828119 253.27832,31.2643235 253.401367,31.1503906 C253.524415,31.0364578 253.667968,30.935059 253.832031,30.8461914 C253.996095,30.7573238 254.180663,30.6855471 254.385742,30.6308594 C254.590821,30.5761716 254.811848,30.5488281 255.048828,30.5488281 L255.329102,30.5488281 L255.329102,32.5107422 Z M258.391602,38 L256.504883,38 L256.504883,30.6787109 L258.391602,30.6787109 L258.391602,38 Z M256.306641,28.7578125 C256.306641,28.6028638 256.336263,28.4558926 256.395508,28.3168945 C256.454753,28.1778964 256.535644,28.0571294 256.638184,27.9545898 C256.740723,27.8520503 256.860351,27.7711592 256.99707,27.7119141 C257.13379,27.652669 257.2819,27.6230469 257.441406,27.6230469 C257.596355,27.6230469 257.743326,27.652669 257.882324,27.7119141 C258.021322,27.7711592 258.142089,27.8520503 258.244629,27.9545898 C258.347168,28.0571294 258.42806,28.1778964 258.487305,28.3168945 C258.54655,28.4558926 258.576172,28.6028638 258.576172,28.7578125 C258.576172,28.9173185 258.54655,29.065429 258.487305,29.2021484 C258.42806,29.3388679 258.347168,29.4584956 258.244629,29.5610352 C258.142089,29.6635747 258.021322,29.7444658 257.882324,29.8037109 C257.743326,29.862956 257.596355,29.8925781 257.441406,29.8925781 C257.2819,29.8925781 257.13379,29.862956 256.99707,29.8037109 C256.860351,29.7444658 256.740723,29.6635747 256.638184,29.5610352 C256.535644,29.4584956 256.454753,29.3388679 256.395508,29.2021484 C256.336263,29.065429 256.306641,28.9173185 256.306641,28.7578125 Z M260.538086,35.6621094 C260.806967,35.903647 261.128253,36.1110017 261.501953,36.2841797 C261.875653,36.4573576 262.253904,36.5439453 262.636719,36.5439453 C262.914715,36.5439453 263.133463,36.4903977 263.292969,36.3833008 C263.452475,36.2762039 263.532227,36.1383472 263.532227,35.9697266 C263.532227,35.6826158 263.224612,35.4593107 262.609375,35.2998047 L262.076172,35.15625 C261.811848,35.0924476 261.545249,35.0047206 261.276367,34.8930664 C261.007486,34.7814122 260.760255,34.634441 260.534668,34.4521484 C260.309081,34.2698559 260.126791,34.0476901 259.987793,33.7856445 C259.848795,33.523599 259.779297,33.2011738 259.779297,32.8183594 C259.779297,32.5130193 259.846516,32.2224949 259.980957,31.9467773 C260.115398,31.6710598 260.306802,31.4283865 260.555176,31.21875 C260.803549,31.0091135 261.105467,30.8427741 261.460938,30.7197266 C261.816408,30.5966791 262.212888,30.5351562 262.650391,30.5351562 C263.274743,30.5351562 263.831866,30.633137 264.321777,30.8291016 C264.811689,31.0250661 265.197915,31.2460925 265.480469,31.4921875 L264.496094,32.75 C264.263671,32.5813794 263.989097,32.4366868 263.672363,32.315918 C263.35563,32.1951491 263.037762,32.1347656 262.71875,32.1347656 C262.422525,32.1347656 262.192384,32.1883133 262.02832,32.2954102 C261.864257,32.402507 261.782227,32.5312492 261.782227,32.6816406 C261.782227,32.8411466 261.854003,32.9698888 261.997559,33.0678711 C262.141114,33.1658534 262.349608,33.2513017 262.623047,33.3242188 L263.416016,33.5498047 C264.17253,33.7639985 264.714842,34.0533836 265.042969,34.4179688 C265.371095,34.7825539 265.535156,35.2428358 265.535156,35.7988281 C265.535156,36.1087255 265.471355,36.4038072 265.34375,36.684082 C265.216145,36.9643569 265.029298,37.2138661 264.783203,37.4326172 C264.537108,37.6513683 264.231773,37.8234043 263.867188,37.9487305 C263.502602,38.0740566 263.087893,38.1367188 262.623047,38.1367188 C262.267576,38.1367188 261.933758,38.104818 261.621582,38.0410156 C261.309406,37.9772132 261.020021,37.8894862 260.753418,37.777832 C260.486815,37.6661778 260.24642,37.5397142 260.032227,37.3984375 C259.818033,37.2571608 259.635743,37.1158861 259.485352,36.9746094 L260.538086,35.6621094 Z M272.924805,38 L271.03125,38 L271.03125,33.7412109 C271.03125,33.481444 271.002767,33.2615569 270.945801,33.081543 C270.888834,32.901529 270.810222,32.7556972 270.709961,32.644043 C270.6097,32.5323888 270.49349,32.452637 270.361328,32.4047852 C270.229166,32.3569334 270.085613,32.3330078 269.930664,32.3330078 C269.748371,32.3330078 269.578614,32.3649085 269.421387,32.4287109 C269.264159,32.4925133 269.127442,32.5927728 269.01123,32.7294922 C268.895019,32.8662116 268.803874,33.0405263 268.737793,33.2524414 C268.671712,33.4643565 268.638672,33.7161444 268.638672,34.0078125 L268.638672,38 L266.751953,38 L266.751953,30.6787109 L268.638672,30.6787109 L268.638672,31.3212891 C268.88021,31.0524075 269.161619,30.8541673 269.48291,30.7265625 C269.804201,30.5989577 270.149412,30.5351562 270.518555,30.5351562 C270.896812,30.5351562 271.251138,30.6126294 271.581543,30.7675781 C271.911948,30.9225268 272.186522,31.1777326 272.405273,31.5332031 C272.532878,31.3509105 272.679849,31.1959642 272.846191,31.0683594 C273.012533,30.9407546 273.191405,30.8382165 273.382812,30.7607422 C273.57422,30.6832678 273.773599,30.6263023 273.980957,30.5898438 C274.188315,30.5533852 274.401366,30.5351562 274.620117,30.5351562 C275.030275,30.5351562 275.395994,30.6023756 275.717285,30.7368164 C276.038576,30.8712572 276.310871,31.0524077 276.53418,31.2802734 C276.757488,31.5081392 276.928385,31.7701808 277.046875,32.0664062 C277.165365,32.3626317 277.224609,32.674803 277.224609,33.0029297 L277.224609,38 L275.317383,38 L275.317383,33.7412109 C275.317383,33.481444 275.2889,33.2615569 275.231934,33.081543 C275.174967,32.901529 275.096355,32.7556972 274.996094,32.644043 C274.895833,32.5323888 274.778484,32.452637 274.644043,32.4047852 C274.509602,32.3569334 274.36491,32.3330078 274.209961,32.3330078 C274.027668,32.3330078 273.85905,32.3649085 273.704102,32.4287109 C273.549153,32.4925133 273.413575,32.5927728 273.297363,32.7294922 C273.181152,32.8662116 273.090007,33.0405263 273.023926,33.2524414 C272.957845,33.4643565 272.924805,33.7161444 272.924805,34.0078125 L272.924805,38 Z" id="https://www.gov.uk/r" fill="#231F20"></path>
            <rect id="Rectangle-7" fill="#FFFFFF" x="8" y="57" width="273" height="149"></rect>
            <rect id="Rectangle" fill="#DEE0E2" transform="translate(207.500000, 168.000000) rotate(90.000000) translate(-207.500000, -168.000000) " x="122" y="106" width="171" height="124"></rect>
            <rect id="Rectangle-7" fill="#FFFFFF" x="154" y="127" width="108" height="118"></rect>
            <rect id="Rectangle-3" fill="#FFFFFF" x="154" y="98" width="108" height="18"></rect>
            <path d="M177.451172,108.607422 L178.34668,103.678711 L180.342773,103.678711 L178.654297,111 L176.412109,111 L175.318359,106.242188 L174.15625,111 L171.948242,111 L170.25293,103.678711 L172.310547,103.678711 L173.178711,108.607422 L174.450195,103.678711 L176.254883,103.678711 L177.451172,108.607422 Z M188.046875,108.607422 L188.942383,103.678711 L190.938477,103.678711 L189.25,111 L187.007812,111 L185.914062,106.242188 L184.751953,111 L182.543945,111 L180.848633,103.678711 L182.90625,103.678711 L183.774414,108.607422 L185.045898,103.678711 L186.850586,103.678711 L188.046875,108.607422 Z M198.642578,108.607422 L199.538086,103.678711 L201.53418,103.678711 L199.845703,111 L197.603516,111 L196.509766,106.242188 L195.347656,111 L193.139648,111 L191.444336,103.678711 L193.501953,103.678711 L194.370117,108.607422 L195.641602,103.678711 L197.446289,103.678711 L198.642578,108.607422 Z M202.176758,109.892578 C202.176758,109.723957 202.209798,109.565593 202.275879,109.41748 C202.34196,109.269368 202.431966,109.139486 202.545898,109.027832 C202.659831,108.916178 202.793131,108.827312 202.945801,108.76123 C203.098471,108.695149 203.259114,108.662109 203.427734,108.662109 C203.596355,108.662109 203.755859,108.695149 203.90625,108.76123 C204.056641,108.827312 204.188802,108.916178 204.302734,109.027832 C204.416667,109.139486 204.506673,109.269368 204.572754,109.41748 C204.638835,109.565593 204.671875,109.723957 204.671875,109.892578 C204.671875,110.065756 204.638835,110.227538 204.572754,110.37793 C204.506673,110.528321 204.416667,110.660481 204.302734,110.774414 C204.188802,110.888347 204.056641,110.977213 203.90625,111.041016 C203.755859,111.104818 203.596355,111.136719 203.427734,111.136719 C203.259114,111.136719 203.098471,111.104818 202.945801,111.041016 C202.793131,110.977213 202.659831,110.888347 202.545898,110.774414 C202.431966,110.660481 202.34196,110.528321 202.275879,110.37793 C202.209798,110.227538 202.176758,110.065756 202.176758,109.892578 Z M210.605469,109.701172 C210.436848,109.906251 210.201011,110.069173 209.897949,110.189941 C209.594888,110.31071 209.265627,110.371094 208.910156,110.371094 C208.417966,110.371094 207.980471,110.284506 207.597656,110.111328 C207.214842,109.93815 206.892417,109.700034 206.630371,109.396973 C206.368326,109.093911 206.167807,108.735028 206.028809,108.320312 C205.889811,107.905597 205.820312,107.449872 205.820312,106.953125 C205.820312,106.47005 205.889811,106.017743 206.028809,105.596191 C206.167807,105.17464 206.368326,104.812339 206.630371,104.509277 C206.892417,104.206216 207.214842,103.9681 207.597656,103.794922 C207.980471,103.621744 208.417966,103.535156 208.910156,103.535156 C209.265627,103.535156 209.594888,103.596679 209.897949,103.719727 C210.201011,103.842774 210.436848,104.006835 210.605469,104.211914 L210.605469,103.678711 L212.499023,103.678711 L212.499023,110.931641 C212.499023,111.378257 212.414714,111.762205 212.246094,112.083496 C212.077473,112.404787 211.846193,112.667968 211.552246,112.873047 C211.258299,113.078126 210.917645,113.227376 210.530273,113.320801 C210.142902,113.414226 209.730471,113.460938 209.292969,113.460938 C208.759763,113.460938 208.203779,113.398275 207.625,113.272949 C207.046221,113.147623 206.547203,112.991537 206.12793,112.804688 L206.661133,111.280273 C206.788738,111.334961 206.945963,111.395345 207.132812,111.461426 C207.319662,111.527507 207.520181,111.585612 207.734375,111.635742 C207.948569,111.685873 208.173013,111.728027 208.407715,111.762207 C208.642417,111.796387 208.871418,111.813477 209.094727,111.813477 C209.290691,111.813477 209.479817,111.794108 209.662109,111.755371 C209.844402,111.716634 210.005045,111.652832 210.144043,111.563965 C210.283041,111.475097 210.394694,111.358887 210.479004,111.215332 C210.563314,111.071777 210.605469,110.888347 210.605469,110.665039 L210.605469,109.701172 Z M207.761719,106.980469 C207.761719,107.222006 207.787923,107.448729 207.840332,107.660645 C207.892741,107.87256 207.97705,108.052571 208.093262,108.200684 C208.209473,108.348796 208.358723,108.465006 208.541016,108.549316 C208.723308,108.633627 208.944335,108.675781 209.204102,108.675781 C209.719078,108.675781 210.085936,108.51286 210.304688,108.187012 C210.523439,107.861164 210.632812,107.458987 210.632812,106.980469 L210.632812,106.925781 C210.632812,106.684244 210.607748,106.45866 210.557617,106.249023 C210.507487,106.039387 210.425456,105.859376 210.311523,105.708984 C210.197591,105.558593 210.050619,105.441244 209.870605,105.356934 C209.690592,105.272623 209.468426,105.230469 209.204102,105.230469 C208.693682,105.230469 208.325685,105.392251 208.100098,105.71582 C207.874511,106.03939 207.761719,106.442706 207.761719,106.925781 L207.761719,106.980469 Z M217.338867,103.535156 C217.881188,103.535156 218.37337,103.631998 218.81543,103.825684 C219.257489,104.019369 219.635741,104.287108 219.950195,104.628906 C220.26465,104.970705 220.507323,105.374021 220.678223,105.838867 C220.849122,106.303713 220.93457,106.80501 220.93457,107.342773 C220.93457,107.885094 220.847983,108.38753 220.674805,108.850098 C220.501627,109.312665 220.257814,109.712563 219.943359,110.049805 C219.628905,110.387046 219.250653,110.652506 218.808594,110.846191 C218.366534,111.039877 217.87663,111.136719 217.338867,111.136719 C216.796547,111.136719 216.304364,111.039877 215.862305,110.846191 C215.420245,110.652506 215.041994,110.387046 214.727539,110.049805 C214.413084,109.712563 214.169272,109.312665 213.996094,108.850098 C213.822916,108.38753 213.736328,107.885094 213.736328,107.342773 C213.736328,106.80501 213.821776,106.303713 213.992676,105.838867 C214.163575,105.374021 214.406248,104.970705 214.720703,104.628906 C215.035158,104.287108 215.414549,104.019369 215.858887,103.825684 C216.303225,103.631998 216.796547,103.535156 217.338867,103.535156 Z M217.338867,109.386719 C217.607749,109.386719 217.845865,109.336589 218.053223,109.236328 C218.26058,109.136067 218.434895,108.997071 218.576172,108.819336 C218.717449,108.641601 218.824544,108.428549 218.897461,108.180176 C218.970378,107.931802 219.006836,107.659507 219.006836,107.363281 L219.006836,107.31543 C219.006836,107.019204 218.970378,106.746909 218.897461,106.498535 C218.824544,106.250162 218.717449,106.035971 218.576172,105.855957 C218.434895,105.675943 218.26058,105.535808 218.053223,105.435547 C217.845865,105.335286 217.607749,105.285156 217.338867,105.285156 C217.069986,105.285156 216.83187,105.335286 216.624512,105.435547 C216.417154,105.535808 216.242839,105.675943 216.101562,105.855957 C215.960286,106.035971 215.85319,106.250162 215.780273,106.498535 C215.707356,106.746909 215.670898,107.019204 215.670898,107.31543 L215.670898,107.363281 C215.670898,107.659507 215.707356,107.931802 215.780273,108.180176 C215.85319,108.428549 215.960286,108.641601 216.101562,108.819336 C216.242839,108.997071 216.417154,109.136067 216.624512,109.236328 C216.83187,109.336589 217.069986,109.386719 217.338867,109.386719 Z M223.737305,111 L221.495117,103.678711 L223.600586,103.678711 L224.913086,108.716797 L226.259766,103.678711 L228.331055,103.678711 L226.102539,111 L223.737305,111 Z M228.495117,109.892578 C228.495117,109.723957 228.528157,109.565593 228.594238,109.41748 C228.660319,109.269368 228.750325,109.139486 228.864258,109.027832 C228.978191,108.916178 229.11149,108.827312 229.26416,108.76123 C229.41683,108.695149 229.577473,108.662109 229.746094,108.662109 C229.914714,108.662109 230.074218,108.695149 230.224609,108.76123 C230.375001,108.827312 230.507161,108.916178 230.621094,109.027832 C230.735027,109.139486 230.825032,109.269368 230.891113,109.41748 C230.957194,109.565593 230.990234,109.723957 230.990234,109.892578 C230.990234,110.065756 230.957194,110.227538 230.891113,110.37793 C230.825032,110.528321 230.735027,110.660481 230.621094,110.774414 C230.507161,110.888347 230.375001,110.977213 230.224609,111.041016 C230.074218,111.104818 229.914714,111.136719 229.746094,111.136719 C229.577473,111.136719 229.41683,111.104818 229.26416,111.041016 C229.11149,110.977213 228.978191,110.888347 228.864258,110.774414 C228.750325,110.660481 228.660319,110.528321 228.594238,110.37793 C228.528157,110.227538 228.495117,110.065756 228.495117,109.892578 Z M238.701172,111 L236.814453,111 L236.814453,110.371094 C236.709635,110.471355 236.595704,110.568196 236.472656,110.661621 C236.349609,110.755046 236.212891,110.837076 236.0625,110.907715 C235.912109,110.978353 235.74463,111.034179 235.560059,111.075195 C235.375487,111.116211 235.171551,111.136719 234.948242,111.136719 C234.551756,111.136719 234.196291,111.071778 233.881836,110.941895 C233.567381,110.812011 233.301922,110.634278 233.085449,110.408691 C232.868977,110.183104 232.703777,109.917645 232.589844,109.612305 C232.475911,109.306965 232.418945,108.976564 232.418945,108.621094 L232.418945,103.678711 L234.305664,103.678711 L234.305664,107.930664 C234.305664,108.190431 234.334147,108.411457 234.391113,108.59375 C234.44808,108.776043 234.527832,108.923014 234.630371,109.034668 C234.732911,109.146322 234.854817,109.228353 234.996094,109.280762 C235.13737,109.333171 235.290038,109.359375 235.454102,109.359375 C235.645509,109.359375 235.824381,109.325196 235.990723,109.256836 C236.157065,109.188476 236.301757,109.084799 236.424805,108.945801 C236.547852,108.806803 236.643554,108.632488 236.711914,108.422852 C236.780274,108.213215 236.814453,107.967124 236.814453,107.68457 L236.814453,103.678711 L238.701172,103.678711 L238.701172,111 Z M242.214844,106.549805 L244.655273,103.678711 L247.006836,103.678711 L244.361328,106.672852 L247.082031,111 L244.8125,111 L242.987305,108.019531 L242.214844,108.860352 L242.214844,111 L240.328125,111 L240.328125,101.197266 L242.214844,101.197266 L242.214844,106.549805 Z" id="www.gov.uk" fill="#231F20"></path>
            <path d="M51.5,0.5 L51.5,22.5" id="Line-2" stroke="#0059A5" stroke-width="2" stroke-linecap="square"></path>
            <path id="Line-2-decoration-1" d="M48.5,11.7 L51.5,22.5 L54.5,11.7" stroke="#0059A5" stroke-width="2" stroke-linecap="square"></path>
            <path d="M175.5,75.5 L175.5,97.5" id="Line-2" stroke="#0059A5" stroke-width="2" stroke-linecap="square"></path>
            <path id="Line-2-decoration-1" d="M172.5,86.7 L175.5,97.5 L178.5,86.7" stroke="#0059A5" stroke-width="2" stroke-linecap="square"></path>
        </g>
    </g>
</svg>